#usda 1.0
(
    metersPerUnit = 1
    upAxis = "Z"
)

def "Renders"
{
    def Camera "usdAecoBuildUpExample"
    {
        float2 clippingRange = (0.01, 100)
        float horizontalAperture = 24
        token projection = "orthographic"
        float verticalAperture = 15
        matrix4d xformOp:transform = ( (0.9056902265584386, 0.42394010604863075, 0, 0), (-0.18399512734315554, 0.3930804993240142, 0.9009070507911235, -0), (0.38193063065234817, -0.8159427109391074, 0.43401208028675925, 0), (1.2000000000000002, -2, 1.7500000000000002, 1) )
        uniform token[] xformOpOrder = ["xformOp:transform"]
    }
}

